<?xml version="1.0" ?><svg id="Layer_1" style="enable-background:new 0 0 612 792;" version="1.1" viewBox="0 0 612 792" xml:space="preserve" xmlns="http://www.w3.org/2000/svg" xmlns:xlink="http://www.w3.org/1999/xlink"><style type="text/css">
	.st0{fill:#77787B;}
</style><g><path class="st0" d="M266.3,141c0,0-12.3,0-12.3,12.3v77.8c0,0,0,12.3,12.3,12.3h77.8c0,0,12.3,0,12.3-12.3v-77.8   c0,0,0-12.3-12.3-12.3H266.3L266.3,141z"/><path class="st0" d="M266.3,345.8c0,0-12.3,0-12.3,12.3v77.8c0,0,0,12.3,12.3,12.3h77.8c0,0,12.3,0,12.3-12.3v-77.8   c0,0,0-12.3-12.3-12.3H266.3L266.3,345.8z"/><path class="st0" d="M266.3,550.6c0,0-12.3,0-12.3,12.3v77.8c0,0,0,12.3,12.3,12.3h77.8c0,0,12.3,0,12.3-12.3v-77.8   c0,0,0-12.3-12.3-12.3H266.3L266.3,550.6z"/></g></svg>