<?xml version="1.0" encoding="UTF-8"?>
<!DOCTYPE svg PUBLIC "-//W3C//DTD SVG 1.1//EN" "http://www.w3.org/Graphics/SVG/1.1/DTD/svg11.dtd">
<svg version="1.1" xmlns="http://www.w3.org/2000/svg" xmlns:xlink="http://www.w3.org/1999/xlink" x="0" y="0" width="155" height="155" viewBox="0, 0, 155, 155">
  <g id="Layer_1">
    <g>
      <g>
        <path d="M78,2.5 L78,2.5 C84.627,2.5 90,7.873 90,14.5 L90,141.5 C90,148.127 84.627,153.5 78,153.5 L78,153.5 C71.373,153.5 66,148.127 66,141.5 L66,14.5 C66,7.873 71.373,2.5 78,2.5 z" fill="#000000"/>
        <path d="M78,2.5 L78,2.5 C84.627,2.5 90,7.873 90,14.5 L90,141.5 C90,148.127 84.627,153.5 78,153.5 L78,153.5 C71.373,153.5 66,148.127 66,141.5 L66,14.5 C66,7.873 71.373,2.5 78,2.5 z" fill-opacity="0" stroke="#000000" stroke-width="1"/>
      </g>
      <g>
        <path d="M153.5,78 L153.5,78 C153.5,84.627 148.127,90 141.5,90 L14.5,90 C7.873,90 2.5,84.627 2.5,78 L2.5,78 C2.5,71.373 7.873,66 14.5,66 L141.5,66 C148.127,66 153.5,71.373 153.5,78 z" fill="#000000"/>
        <path d="M153.5,78 L153.5,78 C153.5,84.627 148.127,90 141.5,90 L14.5,90 C7.873,90 2.5,84.627 2.5,78 L2.5,78 C2.5,71.373 7.873,66 14.5,66 L141.5,66 C148.127,66 153.5,71.373 153.5,78 z" fill-opacity="0" stroke="#000000" stroke-width="1"/>
      </g>
    </g>
  </g>
</svg>
